<?xml version="1.0" encoding="UTF-8"?>
<svg xmlns="http://www.w3.org/2000/svg" xmlns:xlink="http://www.w3.org/1999/xlink" width="503px" height="417px" viewBox="0 0 503 417" version="1.1">
<g id="surface1">
<path id="pathCorridor" style="fill:none;stroke-width:1;stroke-linecap:round;stroke-linejoin:round;stroke:rgb(0%,0%,0%);stroke-opacity:1;stroke-miterlimit:3;" d="M 0.00116894 300.481174 L 182.250361 300.481174 " transform="matrix(1.332096,0,0,1.333119,0.666412,-12.737271)"/>
<path id="pathToClassroom1" style="fill:none;stroke-width:1;stroke-linecap:round;stroke-linejoin:round;stroke:rgb(0%,0%,0%);stroke-opacity:1;stroke-miterlimit:3;" d="M 0.00135646 320.981174 L 31.979272 329.979692 " transform="matrix(1.332096,0,0,1.333119,239.798974,-40.066207)"/>
<path id="pathToClassroom1A11" style="fill:none;stroke-width:1;stroke-linecap:round;stroke-linejoin:round;stroke:rgb(0%,0%,0%);stroke-opacity:1;stroke-miterlimit:3;" d="M 0.000221667 312.979904 L 40.980631 241.108968 " transform="matrix(1.332096,0,0,1.333119,281.76533,-17.583158)"/>
<path id="pathToClassroom1A12" style="fill:none;stroke-width:1;stroke-linecap:round;stroke-linejoin:round;stroke:rgb(0%,0%,0%);stroke-opacity:1;stroke-miterlimit:3;" d="M 0.00102747 312.979586 L 76.369744 242.189878 " transform="matrix(1.332096,0,0,1.333119,282.584569,-19.020233)"/>
<path id="pathToClassroom1B11" style="fill:none;stroke-width:1;stroke-linecap:round;stroke-linejoin:round;stroke:rgb(0%,0%,0%);stroke-opacity:1;stroke-miterlimit:3;" d="M 0.000221667 312.979904 C 54.48144 295.108865 72.078824 292.451211 92.881331 283.250513 C 106.719367 277.129411 121.979621 268.110382 121.979621 241.108968 " transform="matrix(1.332096,0,0,1.333119,281.76533,-17.583158)"/>
<path id="pathToClassroom1B12" style="fill:none;stroke-width:1;stroke-linecap:round;stroke-linejoin:round;stroke:rgb(0%,0%,0%);stroke-opacity:1;stroke-miterlimit:3;" d="M 0.000221667 312.979904 C 72.480564 299.609589 100.699132 291.639557 119.211427 277.261268 C 131.858905 267.430585 139.978745 254.61114 157.980801 241.108968 " transform="matrix(1.332096,0,0,1.333119,281.76533,-17.583158)"/>
<path id="pathToClassroom1Aisle" style="fill:none;stroke-width:1;stroke-linecap:round;stroke-linejoin:round;stroke:rgb(0%,0%,0%);stroke-opacity:1;stroke-miterlimit:3;" d="M 0.000221667 312.979904 L 96.611354 250.18074 " transform="matrix(1.332096,0,0,1.333119,281.76533,-17.583158)"/>
<path id="pathToClassroom1AisleRow2" style="fill:none;stroke-width:1;stroke-linecap:round;stroke-linejoin:round;stroke:rgb(0%,0%,0%);stroke-opacity:1;stroke-miterlimit:3;" d="M 12.501287 311.480378 L 12.501287 289.480745 " transform="matrix(1.332096,0,0,1.333119,393.811929,-98.857548)"/>
<path id="pathToClassroom1AisleRow3" style="fill:none;stroke-width:1;stroke-linecap:round;stroke-linejoin:round;stroke:rgb(0%,0%,0%);stroke-opacity:1;stroke-miterlimit:3;" d="M -12.490781 312.981253 L -12.511308 281.909848 " transform="matrix(1.332096,0,0,1.333119,427.107671,-129.745111)"/>
<path id="pathToClassroom1B21" style="fill:none;stroke-width:1;stroke-linecap:round;stroke-linejoin:round;stroke:rgb(0%,0%,0%);stroke-opacity:1;stroke-miterlimit:3;" d="M 0.00128665 309.249623 L 27.618711 291.709692 " transform="matrix(1.332096,0,0,1.333119,410.46313,-124.774311)"/>
<path id="pathToClassroom1B22" style="fill:none;stroke-width:1;stroke-linecap:round;stroke-linejoin:round;stroke:rgb(0%,0%,0%);stroke-opacity:1;stroke-miterlimit:3;" d="M 0.000756259 308.839138 L 57.578598 292.119652 " transform="matrix(1.332096,0,0,1.333119,411.014618,-124.574743)"/>
<path id="pathToClassroom1A22" style="fill:none;stroke-width:1;stroke-linecap:round;stroke-linejoin:round;stroke:rgb(0%,0%,0%);stroke-opacity:1;stroke-miterlimit:3;" d="M 0.00128665 308.971253 L -29.759728 291.990982 " transform="matrix(1.332096,0,0,1.333119,410.46313,-124.399305)"/>
<path id="pathToClassroom1A21" style="fill:none;stroke-width:1;stroke-linecap:round;stroke-linejoin:round;stroke:rgb(0%,0%,0%);stroke-opacity:1;stroke-miterlimit:3;" d="M 0.00128665 308.971253 L -59.010503 291.990982 " transform="matrix(1.332096,0,0,1.333119,410.46313,-124.399305)"/>
<path id="pathToClassroom1B31" style="fill:none;stroke-width:1;stroke-linecap:round;stroke-linejoin:round;stroke:rgb(0%,0%,0%);stroke-opacity:1;stroke-miterlimit:3;" d="M -0.00111537 307.60082 L 26.909598 293.351457 " transform="matrix(1.332096,0,0,1.333119,409.911642,-163.712979)"/>
<path id="pathToClassroom1B32" style="fill:none;stroke-width:1;stroke-linecap:round;stroke-linejoin:round;stroke:rgb(0%,0%,0%);stroke-opacity:1;stroke-miterlimit:3;" d="M -0.000442983 308.288813 L 59.688733 292.671066 " transform="matrix(1.332096,0,0,1.333119,410.449809,-164.294219)"/>
<path id="pathToClassroom1A32" style="fill:none;stroke-width:1;stroke-linecap:round;stroke-linejoin:round;stroke:rgb(0%,0%,0%);stroke-opacity:1;stroke-miterlimit:3;" d="M -0.720443 307.448743 L -24.279413 293.509978 " transform="matrix(1.332096,0,0,1.333119,411.408918,-163.1704)"/>
<path id="pathToClassroom1A31" style="fill:none;stroke-width:1;stroke-linecap:round;stroke-linejoin:round;stroke:rgb(0%,0%,0%);stroke-opacity:1;stroke-miterlimit:3;" d="M -0.000442983 307.108674 L -58.930126 293.849705 " transform="matrix(1.332096,0,0,1.333119,410.449809,-162.71314)"/>
<path id="pathToClassroom1Front1" style="fill:none;stroke-width:1;stroke-linecap:round;stroke-linejoin:round;stroke:rgb(0%,0%,0%);stroke-opacity:1;stroke-miterlimit:3;" d="M 0.000221667 312.979904 L 72.480564 281.609624 " transform="matrix(1.332096,0,0,1.333119,281.76533,-17.583158)"/>
<path id="pathToClassroom1Front2" style="fill:none;stroke-width:1;stroke-linecap:round;stroke-linejoin:round;stroke:rgb(0%,0%,0%);stroke-opacity:1;stroke-miterlimit:3;" d="M -0.000359415 300.71997 L 77.591171 300.239424 " transform="matrix(1.332096,0,0,1.333119,376.867666,-42.418895)"/>
<path id="pathToClassroom2" style="fill:none;stroke-width:1;stroke-linecap:round;stroke-linejoin:round;stroke:rgb(0%,0%,0%);stroke-opacity:1;stroke-miterlimit:3;" d="M -0.000660948 312.980961 L 35.328997 166.760173 " transform="matrix(1.332096,0,0,1.333119,240.43838,-29.221285)"/>
<path id="pathToClassroom2A12" style="fill:none;stroke-width:1;stroke-linecap:round;stroke-linejoin:round;stroke:rgb(0%,0%,0%);stroke-opacity:1;stroke-miterlimit:3;" d="M 0.000163899 312.978932 L 73.198946 236.369928 " transform="matrix(1.332096,0,0,1.333119,286.796657,-221.226393)"/>
<path id="pathToClassroom2A11" style="fill:none;stroke-width:1;stroke-linecap:round;stroke-linejoin:round;stroke:rgb(0%,0%,0%);stroke-opacity:1;stroke-miterlimit:3;" d="M 0.00081711 312.98031 L 36.098767 237.519928 " transform="matrix(1.332096,0,0,1.333119,288.26063,-222.759479)"/>
<path id="pathToClassroom2B11" style="fill:none;stroke-width:1;stroke-linecap:round;stroke-linejoin:round;stroke:rgb(0%,0%,0%);stroke-opacity:1;stroke-miterlimit:3;" d="M 0.000163899 312.978932 C 40.229877 296.300468 74.269276 291.190271 93.769793 278.590587 C 108.660563 268.959155 115.079606 254.979367 118.199688 236.369928 " transform="matrix(1.332096,0,0,1.333119,286.796657,-221.226393)"/>
<path id="pathToClassroom2B12" style="fill:none;stroke-width:1;stroke-linecap:round;stroke-linejoin:round;stroke:rgb(0%,0%,0%);stroke-opacity:1;stroke-miterlimit:3;" d="M 0.000163899 312.978932 C 59.888744 292.611398 87.620532 294.639068 108.000771 283.129404 C 122.95019 274.690546 133.949655 258.961453 149.699621 236.369928 " transform="matrix(1.332096,0,0,1.333119,286.796657,-221.226393)"/>
<path id="pathToClassroom2Aisle" style="fill:none;stroke-width:1;stroke-linecap:round;stroke-linejoin:round;stroke:rgb(0%,0%,0%);stroke-opacity:1;stroke-miterlimit:3;" d="M 0.000163899 312.978932 L 93.728739 239.179951 " transform="matrix(1.332096,0,0,1.333119,286.796657,-221.226393)"/>
<path id="pathToClassroom2AisleRow2" style="fill:none;stroke-width:1;stroke-linecap:round;stroke-linejoin:round;stroke:rgb(0%,0%,0%);stroke-opacity:1;stroke-miterlimit:3;" d="M 12.500604 309.561386 L 12.500604 291.400261 " transform="matrix(1.332096,0,0,1.333119,395.008151,-314.686022)"/>
<path id="pathToClassroom2B21" style="fill:none;stroke-width:1;stroke-linecap:round;stroke-linejoin:round;stroke:rgb(0%,0%,0%);stroke-opacity:1;stroke-miterlimit:3;" d="M 2.518536 307.699836 L 22.479441 293.260013 " transform="matrix(1.332096,0,0,1.333119,408.30913,-336.055917)"/>
<path id="pathToClassroom2B22" style="fill:none;stroke-width:1;stroke-linecap:round;stroke-linejoin:round;stroke:rgb(0%,0%,0%);stroke-opacity:1;stroke-miterlimit:3;" d="M 0.000603672 307.699836 L 58.220643 293.260013 " transform="matrix(1.332096,0,0,1.333119,411.659352,-336.055917)"/>
<path id="pathToClassroom2A22" style="fill:none;stroke-width:1;stroke-linecap:round;stroke-linejoin:round;stroke:rgb(0%,0%,0%);stroke-opacity:1;stroke-miterlimit:3;" d="M -1.109396 307.699836 L -23.891278 293.260013 " transform="matrix(1.332096,0,0,1.333119,413.137979,-336.055917)"/>
<path id="pathToClassroom2A21" style="fill:none;stroke-width:1;stroke-linecap:round;stroke-linejoin:round;stroke:rgb(0%,0%,0%);stroke-opacity:1;stroke-miterlimit:3;" d="M 0.000603672 307.128766 L -56.808947 293.828775 " transform="matrix(1.332096,0,0,1.333119,411.659352,-335.290707)"/>
<path id="pathToClassroom2AisleRow3" style="fill:none;stroke-width:1;stroke-linecap:round;stroke-linejoin:round;stroke:rgb(0%,0%,0%);stroke-opacity:1;stroke-miterlimit:3;" d="M -12.499396 312.980994 L -12.499396 284.30939 " transform="matrix(1.332096,0,0,1.333119,428.310553,-342.881486)"/>
<path id="pathToClassroom2B31" style="fill:none;stroke-width:1;stroke-linecap:round;stroke-linejoin:round;stroke:rgb(0%,0%,0%);stroke-opacity:1;stroke-miterlimit:3;" d="M 2.51943 307.729082 L 22.480336 293.230656 " transform="matrix(1.332096,0,0,1.333119,407.909502,-373.805843)"/>
<path id="pathToClassroom2B32" style="fill:none;stroke-width:1;stroke-linecap:round;stroke-linejoin:round;stroke:rgb(0%,0%,0%);stroke-opacity:1;stroke-miterlimit:3;" d="M 0.000640246 307.698983 L 58.22068 293.25916 " transform="matrix(1.332096,0,0,1.333119,410.096803,-373.480562)"/>
<path id="pathToClassroom2A32" style="fill:none;stroke-width:1;stroke-linecap:round;stroke-linejoin:round;stroke:rgb(0%,0%,0%);stroke-opacity:1;stroke-miterlimit:3;" d="M -1.109396 307.69932 L -23.891278 293.259497 " transform="matrix(1.332096,0,0,1.333119,413.137979,-374.059136)"/>
<path id="pathToClassroom2A31" style="fill:none;stroke-width:1;stroke-linecap:round;stroke-linejoin:round;stroke:rgb(0%,0%,0%);stroke-opacity:1;stroke-miterlimit:3;" d="M 0.000971138 307.131095 L -56.80858 293.831103 " transform="matrix(1.332096,0,0,1.333119,411.233081,-372.450061)"/>
<path id="pathToClassroom2Front1" style="fill:none;stroke-width:1;stroke-linecap:round;stroke-linejoin:round;stroke:rgb(0%,0%,0%);stroke-opacity:1;stroke-miterlimit:3;" d="M 0.000163899 312.978932 L 64.199385 274.620222 " transform="matrix(1.332096,0,0,1.333119,286.796657,-221.226393)"/>
<path id="pathToClassroom2Front2" style="fill:none;stroke-width:1;stroke-linecap:round;stroke-linejoin:round;stroke:rgb(0%,0%,0%);stroke-opacity:1;stroke-miterlimit:3;" d="M 0.000487007 300.481464 L 74.841418 300.481464 " transform="matrix(1.332096,0,0,1.333119,371.038414,-254.932969)"/>
<path id="pathCorridorToToilet" style="fill:none;stroke-width:1;stroke-linecap:round;stroke-linejoin:round;stroke:rgb(0%,0%,0%);stroke-opacity:1;stroke-miterlimit:3;" d="M -7.270508 312.981174 L -17.73041 251.629507 " transform="matrix(1.332096,0,0,1.333119,249.477985,-29.401256)"/>
<path id="pathToiletWaterCloset" style="fill:none;stroke-width:1;stroke-linecap:round;stroke-linejoin:round;stroke:rgb(0%,0%,0%);stroke-opacity:1;stroke-miterlimit:3;" d="M -0.000924467 320.020868 L -124.208954 330.93864 " transform="matrix(1.332096,0,0,1.333119,226.063731,-119.336786)"/>
<path id="pathToiletSink" style="fill:none;stroke-width:1;stroke-linecap:round;stroke-linejoin:round;stroke:rgb(0%,0%,0%);stroke-opacity:1;stroke-miterlimit:3;" d="M -0.000924467 315.520868 L -43.209965 335.440088 " transform="matrix(1.332096,0,0,1.333119,226.063731,-113.337751)"/>
<path id="pathToiletToSinkFromWaterCloset" style="fill:none;stroke-width:1;stroke-linecap:round;stroke-linejoin:round;stroke:rgb(0%,0%,0%);stroke-opacity:1;stroke-miterlimit:3;" d="M 0.000890211 321.049311 L 79.779998 329.910112 " transform="matrix(1.332096,0,0,1.333119,63.092564,-106.364073)"/>
<path id="pathToOffice1" style="fill:none;stroke-width:1;stroke-linecap:round;stroke-linejoin:round;stroke:rgb(0%,0%,0%);stroke-opacity:1;stroke-miterlimit:3;" d="M -8.53072 312.980929 L -16.46875 231.970827 " transform="matrix(1.332096,0,0,1.333119,250.359832,-34.43218)"/>
<path id="pathToOffice1Front" style="fill:none;stroke-width:1;stroke-linecap:round;stroke-linejoin:round;stroke:rgb(0%,0%,0%);stroke-opacity:1;stroke-miterlimit:3;" d="M -0.000385759 312.979113 L -51.390846 258.689129 " transform="matrix(1.332096,0,0,1.333119,228.574733,-140.808665)"/>
<path id="pathToOffice1Sit" style="fill:none;stroke-width:1;stroke-linecap:round;stroke-linejoin:round;stroke:rgb(0%,0%,0%);stroke-opacity:1;stroke-miterlimit:3;" d="M -0.000544732 312.980199 C -23.890877 312.980199 -74.281386 290.508811 -90.670618 299.290497 C -103.458851 306.141208 -95.550145 331.99986 -95.550145 338.340724 " transform="matrix(1.332096,0,0,1.333119,163.914788,-213.189019)"/>
<path id="pathToOffice2" style="fill:none;stroke-width:1;stroke-linecap:round;stroke-linejoin:round;stroke:rgb(0%,0%,0%);stroke-opacity:1;stroke-miterlimit:3;" d="M -8.240644 312.981174 L -16.75929 117.22898 " transform="matrix(1.332096,0,0,1.333119,250.77811,-29.401256)"/>
<path id="pathToOffice2Front" style="fill:none;stroke-width:1;stroke-linecap:round;stroke-linejoin:round;stroke:rgb(0%,0%,0%);stroke-opacity:1;stroke-miterlimit:3;" d="M -0.000264448 312.978999 L -60.448935 257.188775 " transform="matrix(1.332096,0,0,1.333119,228.625352,-286.445232)"/>
<path id="pathToOffice2Sit" style="fill:none;stroke-width:1;stroke-linecap:round;stroke-linejoin:round;stroke:rgb(0%,0%,0%);stroke-opacity:1;stroke-miterlimit:3;" d="M 0.0000911162 313.450375 C -16.940433 303.188958 -57.398874 297.650958 -74.119468 305.260581 C -88.869483 311.979435 -85.139459 328.930404 -85.139459 337.509909 " transform="matrix(1.332096,0,0,1.333119,150.527222,-359.972069)"/>
</g>
</svg>
