<?xml version="1.0" encoding="UTF-8"?>
<svg xmlns="http://www.w3.org/2000/svg" xmlns:xlink="http://www.w3.org/1999/xlink" width="507px" height="422px" viewBox="0 0 507 422" version="1.1">
<g id="surface1">
<path id="pathToiletSink" style="fill:none;stroke-width:1;stroke-linecap:round;stroke-linejoin:round;stroke:rgb(0%,0%,0%);stroke-opacity:1;stroke-miterlimit:3;" d="M 0.000739598 315.099446 L 47.51858 300.261179 " transform="matrix(1.331408,0,0,1.332071,156.440422,-87.820767)"/>
<path id="pathCorridor" style="fill:none;stroke-width:1;stroke-linecap:round;stroke-linejoin:round;stroke:rgb(0%,0%,0%);stroke-opacity:1;stroke-miterlimit:3;" d="M -0.00123285 307.678763 L 182.251219 307.678763 " transform="matrix(1.331408,0,0,1.332071,0.665704,-17.994485)"/>
<path id="pathCorridorToToilet" style="fill:none;stroke-width:1;stroke-linecap:round;stroke-linejoin:round;stroke:rgb(0%,0%,0%);stroke-opacity:1;stroke-miterlimit:3;" d="M -0.00134134 316.679882 L 18.001219 377.428803 " transform="matrix(1.331408,0,0,1.332071,219.349442,-110.90649)"/>
<path id="pathToOffice1" style="fill:none;stroke-width:1;stroke-linecap:round;stroke-linejoin:round;stroke:rgb(0%,0%,0%);stroke-opacity:1;stroke-miterlimit:3;" d="M 0.139527 316.680588 L 17.86043 403.519639 " transform="matrix(1.331408,0,0,1.332071,219.169702,-146.872273)"/>
<path id="pathToOffice2" style="fill:none;stroke-width:1;stroke-linecap:round;stroke-linejoin:round;stroke:rgb(0%,0%,0%);stroke-opacity:1;stroke-miterlimit:3;" d="M 0.269593 316.679811 L 17.729377 511.339693 " transform="matrix(1.331408,0,0,1.332071,218.992625,-292.23452)"/>
<path id="pathToClassroom2" style="fill:none;stroke-width:1;stroke-linecap:round;stroke-linejoin:round;stroke:rgb(0%,0%,0%);stroke-opacity:1;stroke-miterlimit:3;" d="M -0.0000560302 316.680374 L -23.060702 465.080639 " transform="matrix(1.331408,0,0,1.332071,273.660231,-228.875895)"/>
<path id="pathToClassroom1" style="fill:none;stroke-width:1;stroke-linecap:round;stroke-linejoin:round;stroke:rgb(0%,0%,0%);stroke-opacity:1;stroke-miterlimit:3;" d="M 0.000726539 312.62884 L -25.289702 302.740572 " transform="matrix(1.331408,0,0,1.332071,276.627939,-12.623495)"/>
<path id="pathToiletWaterCloset" style="fill:none;stroke-width:1;stroke-linecap:round;stroke-linejoin:round;stroke:rgb(0%,0%,0%);stroke-opacity:1;stroke-miterlimit:3;" d="M 0.0012739 313.981111 L 126.26858 301.389111 " transform="matrix(1.331408,0,0,1.332071,51.592054,-89.319347)"/>
<path id="pathToOffice1Front" style="fill:none;stroke-width:1;stroke-linecap:round;stroke-linejoin:round;stroke:rgb(0%,0%,0%);stroke-opacity:1;stroke-miterlimit:3;" d="M 0.000799309 316.680667 L 59.459712 378.728669 " transform="matrix(1.331408,0,0,1.332071,140.534092,-227.794254)"/>
<path id="pathToOffice1Sit" style="fill:none;stroke-width:1;stroke-linecap:round;stroke-linejoin:round;stroke:rgb(0%,0%,0%);stroke-opacity:1;stroke-miterlimit:3;" d="M 0.000340569 316.681393 C -14.631141 357.178719 31.020724 351.551321 60.580012 349.070456 C 101.000689 345.680528 111.369178 348.178987 143.140646 344.991399 " transform="matrix(1.331408,0,0,1.332071,29.124547,-182.83819)"/>
<path id="pathToOffice1FrontToSit" style="fill:none;stroke-width:1;stroke-linecap:round;stroke-linejoin:round;stroke:rgb(0%,0%,0%);stroke-opacity:1;stroke-miterlimit:3;" d="M 0.000340569 316.681393 C -1.12922 278.430335 12.651423 281.849588 26.440868 284.438953 C 44.150035 287.749705 61.870939 289.679266 85.500766 282.368634 " transform="matrix(1.331408,0,0,1.332071,29.124547,-182.83819)"/>
<path id="pathToOffice2Front" style="fill:none;stroke-width:1;stroke-linecap:round;stroke-linejoin:round;stroke:rgb(0%,0%,0%);stroke-opacity:1;stroke-miterlimit:3;" d="M -0.000827673 316.6812 L 60.578844 382.969545 " transform="matrix(1.331408,0,0,1.332071,139.036258,-376.646526)"/>
<path id="pathToOffice2Sit" style="fill:none;stroke-width:1;stroke-linecap:round;stroke-linejoin:round;stroke:rgb(0%,0%,0%);stroke-opacity:1;stroke-miterlimit:3;" d="M -0.00128641 316.678994 C -14.629834 357.179252 30.881202 351.569449 60.399416 349.088584 C 100.981459 345.681061 111.370485 348.17952 144.259778 349.220545 " transform="matrix(1.331408,0,0,1.332071,27.626713,-331.690462)"/>
<path id="pathToOffice2FrontToSit" style="fill:none;stroke-width:1;stroke-linecap:round;stroke-linejoin:round;stroke:rgb(0%,0%,0%);stroke-opacity:1;stroke-miterlimit:3;" d="M -0.00128641 316.678994 C -1.130847 278.430868 12.649796 281.850121 26.439241 284.439486 C 44.151342 287.750238 61.869312 289.679799 85.499139 282.369167 " transform="matrix(1.331408,0,0,1.332071,27.626713,-331.690462)"/>
<path id="pathToClassroom2A11" style="fill:none;stroke-width:1;stroke-linecap:round;stroke-linejoin:round;stroke:rgb(0%,0%,0%);stroke-opacity:1;stroke-miterlimit:3;" d="M 0.00137832 316.67875 L -40.551325 392.350979 " transform="matrix(1.331408,0,0,1.332071,327.193477,-326.701856)"/>
<path id="pathToClassroom2A12" style="fill:none;stroke-width:1;stroke-linecap:round;stroke-linejoin:round;stroke:rgb(0%,0%,0%);stroke-opacity:1;stroke-miterlimit:3;" d="M 0.000311065 316.67875 L -73.699871 391.210251 " transform="matrix(1.331408,0,0,1.332071,372.128492,-326.701856)"/>
<path id="pathToClassroom2B11" style="fill:none;stroke-width:1;stroke-linecap:round;stroke-linejoin:round;stroke:rgb(0%,0%,0%);stroke-opacity:1;stroke-miterlimit:3;" d="M 0.000523971 316.67875 C -15.748782 332.429013 -24.400926 323.229874 -41.379546 333.801406 C -59.710706 345.220421 -87.750222 379.679803 -116.449871 391.210251 " transform="matrix(1.331408,0,0,1.332071,429.046177,-326.701856)"/>
<path id="pathToClassroom2B12" style="fill:none;stroke-width:1;stroke-linecap:round;stroke-linejoin:round;stroke:rgb(0%,0%,0%);stroke-opacity:1;stroke-miterlimit:3;" d="M 0.0000967984 316.67875 C 0.0000967984 335.51983 -23.849775 344.598738 -50.448734 354.929808 C -82.80992 367.501281 -119.249262 381.929003 -155.301325 392.350979 " transform="matrix(1.331408,0,0,1.332071,479.972527,-326.701856)"/>
<path id="pathToClassroom2Aisle" style="fill:none;stroke-width:1;stroke-linecap:round;stroke-linejoin:round;stroke:rgb(0%,0%,0%);stroke-opacity:1;stroke-miterlimit:3;" d="M 0.000577538 316.679282 L -96.199871 384.460251 " transform="matrix(1.331408,0,0,1.332071,402.085169,-317.710377)"/>
<path id="pathToClassroom2AisleRow2" style="fill:none;stroke-width:1;stroke-linecap:round;stroke-linejoin:round;stroke:rgb(0%,0%,0%);stroke-opacity:1;stroke-miterlimit:3;" d="M -9.000847 316.679847 L -9.000847 295.299253 " transform="matrix(1.331408,0,0,1.332071,412.143955,-316.355661)"/>
<path id="pathToClassroom2AisleRow3" style="fill:none;stroke-width:1;stroke-linecap:round;stroke-linejoin:round;stroke:rgb(0%,0%,0%);stroke-opacity:1;stroke-miterlimit:3;" d="M 9.001153 316.681258 L 9.001153 287.861003 " transform="matrix(1.331408,0,0,1.332071,388.175951,-344.259884)"/>
<path id="pathToClassroom2B21" style="fill:none;stroke-width:1;stroke-linecap:round;stroke-linejoin:round;stroke:rgb(0%,0%,0%);stroke-opacity:1;stroke-miterlimit:3;" d="M 0.00115279 315.659824 L 21.700458 299.701356 " transform="matrix(1.331408,0,0,1.332071,400.158621,-343.0477)"/>
<path id="pathToClassroom2B22" style="fill:none;stroke-width:1;stroke-linecap:round;stroke-linejoin:round;stroke:rgb(0%,0%,0%);stroke-opacity:1;stroke-miterlimit:3;" d="M 0.00115279 315.659824 L 62.200351 299.701356 " transform="matrix(1.331408,0,0,1.332071,400.158621,-343.0477)"/>
<path id="pathToClassroom2A22" style="fill:none;stroke-width:1;stroke-linecap:round;stroke-linejoin:round;stroke:rgb(0%,0%,0%);stroke-opacity:1;stroke-miterlimit:3;" d="M 0.000311065 317.701356 L 21.051219 333.659824 " transform="matrix(1.331408,0,0,1.332071,372.128492,-367.024977)"/>
<path id="pathToClassroom2A21" style="fill:none;stroke-width:1;stroke-linecap:round;stroke-linejoin:round;stroke:rgb(0%,0%,0%);stroke-opacity:1;stroke-miterlimit:3;" d="M 0.000738238 317.701356 L 59.301219 333.659824 " transform="matrix(1.331408,0,0,1.332071,321.202142,-367.024977)"/>
<path id="pathToClassroom2A32" style="fill:none;stroke-width:1;stroke-linecap:round;stroke-linejoin:round;stroke:rgb(0%,0%,0%);stroke-opacity:1;stroke-miterlimit:3;" d="M 0.000311065 317.218894 L 21.051219 334.15094 " transform="matrix(1.331408,0,0,1.332071,372.128492,-405.339335)"/>
<path id="pathToClassroom2A31" style="fill:none;stroke-width:1;stroke-linecap:round;stroke-linejoin:round;stroke:rgb(0%,0%,0%);stroke-opacity:1;stroke-miterlimit:3;" d="M 0.000162983 317.749378 L 57.860087 333.619873 " transform="matrix(1.331408,0,0,1.332071,323.128689,-404.628009)"/>
<path id="pathToClassroom2B31" style="fill:none;stroke-width:1;stroke-linecap:round;stroke-linejoin:round;stroke:rgb(0%,0%,0%);stroke-opacity:1;stroke-miterlimit:3;" d="M 0.000523971 317.218894 L -21.698781 334.15094 " transform="matrix(1.331408,0,0,1.332071,429.046177,-405.339335)"/>
<path id="pathToClassroom2B32" style="fill:none;stroke-width:1;stroke-linecap:round;stroke-linejoin:round;stroke:rgb(0%,0%,0%);stroke-opacity:1;stroke-miterlimit:3;" d="M 0.000416838 317.218894 L -62.198781 334.15094 " transform="matrix(1.331408,0,0,1.332071,482.968195,-405.339335)"/>
<path id="pathToClassroom2Front1" style="fill:none;stroke-width:1;stroke-linecap:round;stroke-linejoin:round;stroke:rgb(0%,0%,0%);stroke-opacity:1;stroke-miterlimit:3;" d="M -0.00123557 316.67855 L -40.841464 392.039939 " transform="matrix(1.331408,0,0,1.332071,330.189145,-116.900809)"/>
<path id="pathToClassroom2Front2" style="fill:none;stroke-width:1;stroke-linecap:round;stroke-linejoin:round;stroke:rgb(0%,0%,0%);stroke-opacity:1;stroke-miterlimit:3;" d="M 0.000631105 316.67855 L -73.981207 390.91094 " transform="matrix(1.331408,0,0,1.332071,375.12416,-116.900809)"/>
<path id="pathToClassroom1A11" style="fill:none;stroke-width:1;stroke-linecap:round;stroke-linejoin:round;stroke:rgb(0%,0%,0%);stroke-opacity:1;stroke-miterlimit:3;" d="M 0.000844011 316.67855 C -15.751396 332.428814 -24.400605 323.229675 -41.370424 333.789477 C -59.69865 345.211424 -87.749902 379.679603 -116.731207 390.91094 " transform="matrix(1.331408,0,0,1.332071,432.041845,-116.900809)"/>
<path id="pathToClassroom1A12" style="fill:none;stroke-width:1;stroke-linecap:round;stroke-linejoin:round;stroke:rgb(0%,0%,0%);stroke-opacity:1;stroke-miterlimit:3;" d="M 0.000416838 316.67855 C 0.000416838 335.519631 -23.828917 344.589741 -50.419075 354.920811 C -82.789063 367.489351 -119.248942 381.928803 -155.591464 392.039939 " transform="matrix(1.331408,0,0,1.332071,482.968195,-116.900809)"/>
<path id="pathToClassroom1B11" style="fill:none;stroke-width:1;stroke-linecap:round;stroke-linejoin:round;stroke:rgb(0%,0%,0%);stroke-opacity:1;stroke-miterlimit:3;" d="M 0.000897578 316.679082 L -96.481207 384.16094 " transform="matrix(1.331408,0,0,1.332071,405.080836,-107.90933)"/>
<path id="pathToClassroom1B12" style="fill:none;stroke-width:1;stroke-linecap:round;stroke-linejoin:round;stroke:rgb(0%,0%,0%);stroke-opacity:1;stroke-miterlimit:3;" d="M 8.998539 316.678582 L 8.998539 295.309718 " transform="matrix(1.331408,0,0,1.332071,391.171618,-106.561008)"/>
<path id="pathToClassroom1Aisle" style="fill:none;stroke-width:1;stroke-linecap:round;stroke-linejoin:round;stroke:rgb(0%,0%,0%);stroke-opacity:1;stroke-miterlimit:3;" d="M 8.998539 316.681058 L 8.998539 287.860803 " transform="matrix(1.331408,0,0,1.332071,391.171618,-134.458837)"/>
<path id="pathToClassroom1AisleRow2" style="fill:none;stroke-width:1;stroke-linecap:round;stroke-linejoin:round;stroke:rgb(0%,0%,0%);stroke-opacity:1;stroke-miterlimit:3;" d="M -0.00146109 315.659924 L 21.700778 299.701456 " transform="matrix(1.331408,0,0,1.332071,403.154289,-133.247052)"/>
<path id="pathToClassroom1AisleRow3" style="fill:none;stroke-width:1;stroke-linecap:round;stroke-linejoin:round;stroke:rgb(0%,0%,0%);stroke-opacity:1;stroke-miterlimit:3;" d="M -0.00146109 315.659924 L 62.200671 299.701456 " transform="matrix(1.331408,0,0,1.332071,403.154289,-133.247052)"/>
<path id="pathToClassroom1B21" style="fill:none;stroke-width:1;stroke-linecap:round;stroke-linejoin:round;stroke:rgb(0%,0%,0%);stroke-opacity:1;stroke-miterlimit:3;" d="M 0.000631105 317.701056 L 21.048605 333.659524 " transform="matrix(1.331408,0,0,1.332071,375.12416,-157.223797)"/>
<path id="pathToClassroom1B22" style="fill:none;stroke-width:1;stroke-linecap:round;stroke-linejoin:round;stroke:rgb(0%,0%,0%);stroke-opacity:1;stroke-miterlimit:3;" d="M 0.00105828 317.701056 L 59.298605 333.659524 " transform="matrix(1.331408,0,0,1.332071,324.19781,-157.223797)"/>
<path id="pathToClassroom1A22" style="fill:none;stroke-width:1;stroke-linecap:round;stroke-linejoin:round;stroke:rgb(0%,0%,0%);stroke-opacity:1;stroke-miterlimit:3;" d="M 0.000631105 317.218594 L 21.048605 334.15064 " transform="matrix(1.331408,0,0,1.332071,375.12416,-195.538155)"/>
<path id="pathToClassroom1A21" style="fill:none;stroke-width:1;stroke-linecap:round;stroke-linejoin:round;stroke:rgb(0%,0%,0%);stroke-opacity:1;stroke-miterlimit:3;" d="M 0.000483023 317.749079 L 57.860407 333.619573 " transform="matrix(1.331408,0,0,1.332071,326.124357,-194.826829)"/>
<path id="pathToClassroom1A32" style="fill:none;stroke-width:1;stroke-linecap:round;stroke-linejoin:round;stroke:rgb(0%,0%,0%);stroke-opacity:1;stroke-miterlimit:3;" d="M 0.000844011 317.218594 L -21.701395 334.15064 " transform="matrix(1.331408,0,0,1.332071,432.041845,-195.538155)"/>
<path id="pathToClassroom1A31" style="fill:none;stroke-width:1;stroke-linecap:round;stroke-linejoin:round;stroke:rgb(0%,0%,0%);stroke-opacity:1;stroke-miterlimit:3;" d="M 0.000736878 317.218594 L -62.201395 334.15064 " transform="matrix(1.331408,0,0,1.332071,485.963863,-195.538155)"/>
<path id="pathToClassroom1B31" style="fill:none;stroke-width:1;stroke-linecap:round;stroke-linejoin:round;stroke:rgb(0%,0%,0%);stroke-opacity:1;stroke-miterlimit:3;" d="M 0.000315296 316.678808 L -72.998659 350.800958 " transform="matrix(1.331408,0,0,1.332071,376.56208,-62.951934)"/>
<path id="pathToClassroom1B32" style="fill:none;stroke-width:1;stroke-linecap:round;stroke-linejoin:round;stroke:rgb(0%,0%,0%);stroke-opacity:1;stroke-miterlimit:3;" d="M -0.000863321 307.678808 L -71.999369 307.678808 " transform="matrix(1.331408,0,0,1.332071,470.985524,-50.963295)"/>
<path id="pathToClassroom1Front1" style="fill:none;stroke-width:1;stroke-linecap:round;stroke-linejoin:round;stroke:rgb(0%,0%,0%);stroke-opacity:1;stroke-miterlimit:3;" d="M 0.00127118 316.680609 L -81.051325 356.350979 " transform="matrix(1.331408,0,0,1.332071,381.115495,-278.747301)"/>
<path id="pathToClassroom1Front2" style="fill:none;stroke-width:1;stroke-linecap:round;stroke-linejoin:round;stroke:rgb(0%,0%,0%);stroke-opacity:1;stroke-miterlimit:3;" d="M -0.00029421 325.679966 L -58.969241 325.688764 " transform="matrix(1.331408,0,0,1.332071,458.004298,-289.946022)"/>
<path id="pathToiletToSink" style="fill:none;stroke-width:1;stroke-linecap:round;stroke-linejoin:round;stroke:rgb(0%,0%,0%);stroke-opacity:1;stroke-miterlimit:3;" d="M -0.000344836 324.579833 L 77.569683 326.790911 " transform="matrix(1.331408,0,0,1.332071,54.11374,-103.687597)"/>
<path id="pathToOffice2FromOffice1" style="fill:none;stroke-width:1;stroke-linecap:round;stroke-linejoin:round;stroke:rgb(0%,0%,0%);stroke-opacity:1;stroke-miterlimit:3;" d="M 8.998712 316.680545 L 8.998712 424.190534 " transform="matrix(1.331408,0,0,1.332071,207.718263,-288.344872)"/>
<path id="pathToOffice1FromToilet" style="fill:none;stroke-width:1;stroke-linecap:round;stroke-linejoin:round;stroke:rgb(0%,0%,0%);stroke-opacity:1;stroke-miterlimit:3;" d="M 9.00058 316.679747 L 9.00058 344.898846 " transform="matrix(1.331408,0,0,1.332071,207.723589,-147.285215)"/>
<path id="pathToClassroom2FromOffice2" style="fill:none;stroke-width:1;stroke-linecap:round;stroke-linejoin:round;stroke:rgb(0%,0%,0%);stroke-opacity:1;stroke-miterlimit:3;" d="M 0.000711859 316.680545 L 41.149002 362.010571 " transform="matrix(1.331408,0,0,1.332071,219.698271,-288.344872)"/>
</g>
</svg>
